<svg id="Camada_1" data-name="Camada 1" xmlns="http://www.w3.org/2000/svg" viewBox="0 0 160 160"><defs><style>.cls-1{fill:#71c6ff;}.cls-2{fill:#0f265c;}</style></defs><path class="cls-1" d="M51,85.81a14.46,14.46,0,0,1-10.16-4.16V93.06A2.9,2.9,0,0,0,43.71,96H58.23a2.9,2.9,0,0,0,2.9-2.91V81.65A14.46,14.46,0,0,1,51,85.81Z"/><path class="cls-1" d="M110.48,49.52H69.84V40.81h40.64Z"/><path class="cls-1" d="M69.84,53.87V65.48H93.06v-5.8h17.42V53.87Z"/><path class="cls-2" d="M115.6,77.64l-.25-.46,7.72-7.72a6.58,6.58,0,0,0-4.65-11.23,6.62,6.62,0,0,0-2.13.37V39.35A4.35,4.35,0,0,0,111.94,35H66.69a4.29,4.29,0,0,0-3.08,1.28L50.79,49.09a4.33,4.33,0,0,0-1.27,3.08V55.4A16,16,0,0,0,35,71.29v46.45A7.27,7.27,0,0,0,42.26,125H59.68a7.27,7.27,0,0,0,7.26-7.26v-1.45h56.87l-3.17-19A41.45,41.45,0,0,0,115.6,77.64Zm2.11,18.68-14.15,3.86-3.42-2.73a7.23,7.23,0,0,1-2.72-5.67V78.55a2.9,2.9,0,0,1,2.9,2.9V91.61h2.91v-2.3l10-10A38.39,38.39,0,0,1,117.71,96.32ZM97.42,75.65a2.9,2.9,0,0,0-2.9,2.9V80a1.46,1.46,0,0,1-2.91,0V78.55a5.82,5.82,0,0,1,5.81-5.81h3.75l-3,3a6.48,6.48,0,0,0-.77-.07Zm-15.9,24.78,1.91-4.78,4.15,4.14L82.8,101.7a1,1,0,0,1-1.35-.91A.89.89,0,0,1,81.52,100.43Zm8.64-2.16L85,93.06l8.77-8.77a4.8,4.8,0,0,0,.79-.2v7.69a10.46,10.46,0,0,0,.19,1.94ZM89,81.45H72.74v-5.8H89.22a8.71,8.71,0,0,0-.51,2.9V80A4.1,4.1,0,0,0,89,81.45Zm-16.24,2.9H89.56l-5.81,5.81h-11Zm0,8.71h8.6L79,98.87H72.74Zm0,8.71h6a3.88,3.88,0,0,0,3.75,2.91,4,4,0,0,0,1.44-.28l3.38-1.35v4.53H72.74Zm17.42.12.82-.33,4.83-4.83c0,.09.1.19.16.28v10.57H90.16Zm8.71-1.74,2.9,2.32v5.11h-2.9ZM122.1,64.81a3.67,3.67,0,0,1-1.08,2.6l-17.79,17.8V81.45A5.79,5.79,0,0,0,101.06,77l14.75-14.75a3.65,3.65,0,0,1,2.61-1.08,3.69,3.69,0,0,1,3.68,3.68ZM64,40v8.1a1.46,1.46,0,0,1-1.45,1.46H54.47ZM51,58.23A13.06,13.06,0,1,1,37.9,71.29,13.08,13.08,0,0,1,51,58.23Zm8.71,63.87H42.26a4.37,4.37,0,0,1-4.36-4.36V80.44a15.92,15.92,0,0,0,26.13,0v37.3A4.36,4.36,0,0,1,59.68,122.1Zm7.26-8.71V71.29A16,16,0,0,0,52.42,55.4v-3H62.58a4.36,4.36,0,0,0,4.36-4.36V37.9h45a1.45,1.45,0,0,1,1.45,1.45V60.53l-9.31,9.31H97.42A8.69,8.69,0,0,0,91,72.74H69.84v37.74h31.93v2.91Zm37.74,0V102.88L118,99.24l2.36,14.15Z"/><path class="cls-2" d="M49.52,78.34v3.11h2.9V78.34A4.13,4.13,0,0,0,53,70.7L50.2,69.29a1.25,1.25,0,0,1-.68-1.11,1.23,1.23,0,0,1,1.24-1.24h.42a1.24,1.24,0,0,1,1.24,1.24v1.66h2.9V68.18a4.14,4.14,0,0,0-2.9-3.94V61.13h-2.9v3.11a4.13,4.13,0,0,0-.62,7.64l2.83,1.41a1.25,1.25,0,0,1-.55,2.36h-.42a1.24,1.24,0,0,1-1.24-1.24V72.74H46.61v1.67A4.14,4.14,0,0,0,49.52,78.34Z"/><path class="cls-2" d="M58.23,98.87H43.71a2.9,2.9,0,0,0-2.9,2.9v14.52a2.9,2.9,0,0,0,2.9,2.9H58.23a2.9,2.9,0,0,0,2.9-2.9V101.77A2.9,2.9,0,0,0,58.23,98.87Zm0,5.81H55.32v-2.91h2.91Zm-5.81,11.61h-2.9v-2.9h2.9Zm0-5.81h-2.9v-2.9h2.9Zm-5.81,0h-2.9v-2.9h2.9Zm2.91-5.8v-2.91h2.9v2.91Zm-2.91-2.91v2.91h-2.9v-2.91Zm-2.9,11.62h2.9v2.9h-2.9Zm11.61,2.9v-8.71h2.91v8.71Z"/><path class="cls-2" d="M69.84,52.42h40.64v2.9H69.84Z"/><path class="cls-2" d="M69.84,58.23h40.64v2.9H69.84Z"/><path class="cls-2" d="M69.84,64H93.06v2.91H69.84Z"/></svg>