<svg id="Camada_1" data-name="Camada 1" xmlns="http://www.w3.org/2000/svg" viewBox="0 0 160 160"><defs><style>.cls-1{fill:#0f265c;}.cls-2{fill:#71c6ff;}</style></defs><rect class="cls-1" x="49.58" y="46.59" width="2.9" height="2.9"/><rect class="cls-1" x="49.58" y="40.79" width="44.9" height="2.9"/><rect class="cls-1" x="55.38" y="46.59" width="39.11" height="2.9"/><rect class="cls-1" x="91.59" y="52.38" width="2.9" height="2.9"/><rect class="cls-1" x="49.58" y="52.38" width="39.11" height="2.9"/><path class="cls-1" d="M116.21,53.27,99.47,35H43.79v82.56h9.06l-1,4.21,8.41-3.6L66.14,125l1.78-7.44H80.49L82.27,125l5.89-6.83,8.41,3.6-1-4.21h20.65V53.27Zm-15.93-13.1,11.19,12.21H100.28V40.17ZM64.64,118.82l-3.57-4.15L56,116.83l5-20.66a18.27,18.27,0,0,0,2.34,2l-3,12.3,2.81.68,2.75-11.43a18.52,18.52,0,0,0,3,1.19Zm4-4.15,3.17-13.21a17.24,17.24,0,0,0,4.83,0l3.18,13.21Zm18.72,0-3.57,4.15-4.31-17.95a18.17,18.17,0,0,0,3-1.19l2.74,11.43,2.82-.68-3-12.3a18.27,18.27,0,0,0,2.34-2l5,20.66Zm7.52,0L89.76,93.4A18.78,18.78,0,0,0,92,76.52l-2.73,1a15.68,15.68,0,0,1,.91,5.31,15.92,15.92,0,1,1-4-10.54l2.17-1.92A18.83,18.83,0,0,0,58.65,93.4l-5.1,21.27H46.68V37.9h50.7V55.28h15.94v59.39Z"/><path class="cls-2" d="M73.36,95.34,62,84l6.14-6.14,5.2,5.19L98.83,57.58,105,63.72Z"/></svg>