<svg id="Camada_1" data-name="Camada 1" xmlns="http://www.w3.org/2000/svg" viewBox="0 0 160 160"><defs><style>.cls-1{fill:#71c6ff;}.cls-2{fill:#0f265c;}</style></defs><circle class="cls-1" cx="80" cy="87.26" r="13.06"/><path class="cls-1" d="M120.65,43.71A4.36,4.36,0,1,1,125,39.35,4.36,4.36,0,0,1,120.65,43.71Z"/><path class="cls-2" d="M81.45,77.1h-2.9V80a4.36,4.36,0,1,0,0,8.71h2.9a1.45,1.45,0,1,1,0,2.9H77.1V90.16H74.19v4.36h4.36v2.9h2.9v-2.9a4.36,4.36,0,1,0,0-8.71h-2.9a1.46,1.46,0,0,1,0-2.91H82.9v1.45h2.91V80H81.45Z"/><path class="cls-2" d="M110.44,77.23l.12,1.32H122.2L122.09,77a42.24,42.24,0,0,0-16.62-30.58l5.61-5.61h5.48a4.06,4.06,0,0,1,0-2.91h-6.68l-6.81,6.82A41.86,41.86,0,0,0,83,37.91l-1.55-.11V49.44l1.32.12A30.52,30.52,0,0,1,110.44,77.23ZM84.35,40.94a39.49,39.49,0,0,1,34.71,34.71h-5.87A33.44,33.44,0,0,0,84.35,46.81Z"/><path class="cls-2" d="M98.87,87.7a18.43,18.43,0,0,0-6.29-13.87l-5.09-4.45L92,55.74l-8.26-2.06-3.93,5.24-3.75-3.75-8.18,2,4.57,12.2-5.06,4.42a18.43,18.43,0,0,0,12.14,32.3h.88A18.45,18.45,0,0,0,98.87,87.7ZM75.2,58.38l5,5L84.94,57l3.35.84L84.76,68.39H75.2l-3.43-9.15Zm5.24,44.85h-.88A15.53,15.53,0,0,1,69.33,76l5.41-4.73H85.26L90.67,76a15.53,15.53,0,0,1-10.23,27.21Z"/><path class="cls-2" d="M49.56,77.23A30.52,30.52,0,0,1,77.23,49.56l1.32-.12V37.8L77,37.91A42.36,42.36,0,0,0,37.91,77l-.11,1.55H49.44ZM64.45,50.37c-.85.45-1.68.93-2.49,1.45L58.75,47a39,39,0,0,1,3.48-2Zm.42-6.59a36.64,36.64,0,0,1,3.84-1.4l1.14,5.73c-.94.3-1.86.64-2.77,1Zm-5.29,9.71c-.76.59-1.48,1.2-2.19,1.85l-4.08-4.08c1-.9,2-1.76,3.06-2.57Zm-4.24,3.9c-.65.7-1.26,1.43-1.85,2.19l-4.8-3.21c.81-1.06,1.67-2.08,2.57-3.06ZM51.82,62c-.52.81-1,1.64-1.45,2.49L45,62.23a40,40,0,0,1,2-3.48Zm-2.69,5.12c-.38.91-.72,1.83-1,2.77l-5.73-1.14a36.64,36.64,0,0,1,1.4-3.84ZM75.65,46.81c-1,.14-2,.32-3,.54l-1.13-5.7a39.81,39.81,0,0,1,4.12-.71ZM40.94,75.65a39.81,39.81,0,0,1,.71-4.12l5.7,1.13c-.22,1-.4,2-.54,3Z"/><path class="cls-2" d="M110.44,82.77a30.52,30.52,0,0,1-27.67,27.67l-1.32.12V122.2l1.55-.11A42.36,42.36,0,0,0,122.09,83l.11-1.55H110.56Zm8.62,1.58a39.49,39.49,0,0,1-34.71,34.71v-5.87a33.44,33.44,0,0,0,28.84-28.84Z"/><path class="cls-2" d="M49.56,82.77l-.12-1.32H37.8L37.91,83a42.24,42.24,0,0,0,16.62,30.58l-5.61,5.61H43.44a4.06,4.06,0,0,1,0,2.91h6.68l6.81-6.82A41.86,41.86,0,0,0,77,122.09l1.55.11V110.56l-1.32-.12A30.52,30.52,0,0,1,49.56,82.77Zm26.09,36.29A39.49,39.49,0,0,1,40.94,84.35h5.87a33.44,33.44,0,0,0,28.84,28.84Z"/><path class="cls-1" d="M120.65,43.71A4.36,4.36,0,1,1,125,39.35,4.36,4.36,0,0,1,120.65,43.71Z"/><path class="cls-1" d="M39.35,125a4.36,4.36,0,1,1,4.36-4.35A4.35,4.35,0,0,1,39.35,125Z"/></svg>